<?xml version="1.0" encoding="UTF-8"?>
<svg version="1.1" xmlns="http://www.w3.org/2000/svg" width="313" height="313">
<path d="M0 0 C16.29209148 13.09967761 27.05234281 30.11591757 32.49609375 50.34375 C32.72039062 51.15070313 32.9446875 51.95765625 33.17578125 52.7890625 C38.36430771 75.46221238 33.43420615 100.93650486 21.37109375 120.5390625 C6.13750416 143.3259736 -14.80073501 156.89470544 -41.50390625 162.34375 C-44.51876011 162.88406266 -47.44479369 163.21788311 -50.50390625 163.34375 C-51.39980469 163.38371094 -52.29570312 163.42367187 -53.21875 163.46484375 C-79.65790514 164.05546877 -103.01042369 153.92078085 -122.19140625 136.09375 C-138.86813557 118.42139505 -148.37095458 94.33970814 -147.6875 69.9765625 C-146.09946783 47.20350537 -139.02328538 27.3641399 -123.50390625 10.34375 C-122.82972656 9.57675781 -122.15554687 8.80976562 -121.4609375 8.01953125 C-90.36457621 -25.41051569 -35.42357427 -27.3872679 0 0 Z M-116.796875 14.26171875 C-132.06560255 32.88467478 -141.07563493 54.96208984 -139.15576172 79.390625 C-136.88155773 102.10158235 -126.43041335 121.10651507 -109.50390625 136.34375 C-105.45560515 139.93846341 -105.45560515 139.93846341 -100.50390625 141.34375 C-100.46632202 139.98842163 -100.46632202 139.98842163 -100.42797852 138.60571289 C-100.33303308 135.2641072 -100.23379004 131.92268748 -100.1315918 128.58129883 C-100.08818995 127.1331076 -100.04651881 125.68486346 -100.0065918 124.23657227 C-99.94901563 122.15885441 -99.88528597 120.08140427 -99.8203125 118.00390625 C-99.78365479 116.75230713 -99.74699707 115.50070801 -99.70922852 114.21118164 C-99.50390625 111.34375 -99.50390625 111.34375 -98.50390625 110.34375 C-96.82206677 110.11087992 -95.13266465 109.93110834 -93.44140625 109.78125 C-92.06275391 109.65556641 -92.06275391 109.65556641 -90.65625 109.52734375 C-89.94597656 109.46675781 -89.23570313 109.40617187 -88.50390625 109.34375 C-88.46632202 107.67034546 -88.46632202 107.67034546 -88.42797852 105.96313477 C-88.33407204 101.8388241 -88.23381111 97.7146885 -88.1315918 93.59057617 C-88.08817925 91.8028573 -88.04650896 90.01509526 -88.0065918 88.22729492 C-87.94904165 85.66311609 -87.88530422 83.09915588 -87.8203125 80.53515625 C-87.80360001 79.7309877 -87.78688751 78.92681915 -87.76966858 78.09828186 C-87.61777796 72.45762171 -87.61777796 72.45762171 -86.50390625 71.34375 C-80.56390625 71.01375 -74.62390625 70.68375 -68.50390625 70.34375 C-68.17390625 56.15375 -67.84390625 41.96375 -67.50390625 27.34375 C-65.85390625 27.01375 -64.20390625 26.68375 -62.50390625 26.34375 C-62.17390625 21.39375 -61.84390625 16.44375 -61.50390625 11.34375 C-59.85390625 10.68375 -58.20390625 10.02375 -56.50390625 9.34375 C-56.17390625 4.39375 -55.84390625 -0.55625 -55.50390625 -5.65625 C-53.85390625 -5.65625 -52.20390625 -5.65625 -50.50390625 -5.65625 C-48.56299799 -3.71534174 -49.1047119 -0.18331098 -48.94140625 2.40625 C-48.85761719 3.69660156 -48.77382812 4.98695312 -48.6875 6.31640625 C-48.62691406 7.31542969 -48.56632812 8.31445312 -48.50390625 9.34375 C-46.85390625 9.67375 -45.20390625 10.00375 -43.50390625 10.34375 C-43.50390625 15.62375 -43.50390625 20.90375 -43.50390625 26.34375 C-41.19390625 26.67375 -38.88390625 27.00375 -36.50390625 27.34375 C-36.50390625 38.23375 -36.50390625 49.12375 -36.50390625 60.34375 C-33.53390625 61.00375 -30.56390625 61.66375 -27.50390625 62.34375 C-27.00890625 82.63875 -27.00890625 82.63875 -26.50390625 103.34375 C-21.22390625 103.67375 -15.94390625 104.00375 -10.50390625 104.34375 C-8.5529254 106.29473085 -9.24975517 109.99049929 -9.1875 112.66015625 C-9.1667189 113.39121078 -9.14593781 114.12226532 -9.12452698 114.87547302 C-9.05895601 117.21896656 -9.00011193 119.56257539 -8.94140625 121.90625 C-8.89822817 123.49154855 -8.85461412 125.07683529 -8.81054688 126.66210938 C-8.70326705 130.55587037 -8.60202135 134.44974772 -8.50390625 138.34375 C-5.28293229 137.17908672 -2.86929015 136.09230094 -0.41796875 133.69140625 C0.11699219 133.16780518 0.65195313 132.6442041 1.203125 132.10473633 C2.02876953 131.2639856 2.02876953 131.2639856 2.87109375 130.40625 C3.44472656 129.82576904 4.01835937 129.24528809 4.609375 128.6472168 C9.41064446 123.66426665 13.18008287 118.42767079 16.49609375 112.34375 C16.95371094 111.54710937 17.41132813 110.75046875 17.8828125 109.9296875 C27.88746631 91.48266815 29.14195729 69.31813087 23.49609375 49.34375 C16.20437438 26.76746502 2.09734106 9.2030953 -18.62109375 -2.40234375 C-50.42252964 -18.3030617 -92.26828914 -12.25399306 -116.796875 14.26171875 Z M-54.50390625 17.34375 C-54.50390625 20.31375 -54.50390625 23.28375 -54.50390625 26.34375 C-53.18390625 26.34375 -51.86390625 26.34375 -50.50390625 26.34375 C-50.50390625 23.37375 -50.50390625 20.40375 -50.50390625 17.34375 C-51.82390625 17.34375 -53.14390625 17.34375 -54.50390625 17.34375 Z M-61.50390625 34.34375 C-61.52702552 49.97253415 -61.54488562 65.60131227 -61.55571842 81.23010921 C-61.5608813 88.48633849 -61.56792383 95.74255696 -61.5793457 102.9987793 C-61.58929281 109.32108856 -61.59575974 115.64339001 -61.59799474 121.96570688 C-61.59930181 125.3153175 -61.60238738 128.66490574 -61.60963631 132.0145092 C-61.61684245 135.74788645 -61.61789737 139.48121658 -61.61743164 143.21459961 C-61.62102692 144.33309296 -61.62462219 145.4515863 -61.62832642 146.60397339 C-61.62695175 147.61504654 -61.62557709 148.62611969 -61.62416077 149.66783142 C-61.62508256 150.55183089 -61.62600435 151.43583036 -61.62695408 152.3466177 C-61.72522219 154.34319555 -61.72522219 154.34319555 -60.50390625 155.34375 C-58.19390625 155.34375 -55.88390625 155.34375 -53.50390625 155.34375 C-53.17390625 124.65375 -52.84390625 93.96375 -52.50390625 62.34375 C-49.86390625 61.68375 -47.22390625 61.02375 -44.50390625 60.34375 C-44.50390625 51.76375 -44.50390625 43.18375 -44.50390625 34.34375 C-50.11390625 34.34375 -55.72390625 34.34375 -61.50390625 34.34375 Z M-45.50390625 68.34375 C-45.50390625 96.72375 -45.50390625 125.10375 -45.50390625 154.34375 C-43.52390625 153.84875 -43.52390625 153.84875 -41.50390625 153.34375 C-41.17390625 137.17375 -40.84390625 121.00375 -40.50390625 104.34375 C-37.53390625 103.84875 -37.53390625 103.84875 -34.50390625 103.34375 C-34.50390625 91.79375 -34.50390625 80.24375 -34.50390625 68.34375 C-38.13390625 68.34375 -41.76390625 68.34375 -45.50390625 68.34375 Z M-80.50390625 78.34375 C-80.50390625 88.57375 -80.50390625 98.80375 -80.50390625 109.34375 C-78.52390625 109.67375 -76.54390625 110.00375 -74.50390625 110.34375 C-74.17390625 124.20375 -73.84390625 138.06375 -73.50390625 152.34375 C-71.85390625 153.00375 -70.20390625 153.66375 -68.50390625 154.34375 C-68.48078179 144.58224012 -68.46299064 134.8207367 -68.45209408 125.05920506 C-68.44686547 120.52700906 -68.43976824 115.99483173 -68.4284668 111.46264648 C-68.41763711 107.0925217 -68.41162924 102.72241492 -68.40902901 98.35227776 C-68.4071749 96.68124037 -68.40355457 95.01020403 -68.39817619 93.33917427 C-68.39096466 91.00677449 -68.38991535 88.67445007 -68.39038086 86.34204102 C-68.38678558 85.6443309 -68.38319031 84.94662079 -68.37948608 84.22776794 C-68.11328159 81.00715619 -68.11328159 81.00715619 -69.50390625 78.34375 C-73.13390625 78.34375 -76.76390625 78.34375 -80.50390625 78.34375 Z M-33.50390625 111.34375 C-33.50390625 113.65375 -33.50390625 115.96375 -33.50390625 118.34375 C-27.89390625 118.34375 -22.28390625 118.34375 -16.50390625 118.34375 C-16.50390625 116.03375 -16.50390625 113.72375 -16.50390625 111.34375 C-22.11390625 111.34375 -27.72390625 111.34375 -33.50390625 111.34375 Z M-92.50390625 117.34375 C-92.50390625 118.66375 -92.50390625 119.98375 -92.50390625 121.34375 C-88.54390625 121.34375 -84.58390625 121.34375 -80.50390625 121.34375 C-80.50390625 120.02375 -80.50390625 118.70375 -80.50390625 117.34375 C-84.46390625 117.34375 -88.42390625 117.34375 -92.50390625 117.34375 Z M-33.50390625 126.34375 C-33.50390625 128.32375 -33.50390625 130.30375 -33.50390625 132.34375 C-27.89390625 132.34375 -22.28390625 132.34375 -16.50390625 132.34375 C-16.50390625 130.36375 -16.50390625 128.38375 -16.50390625 126.34375 C-22.11390625 126.34375 -27.72390625 126.34375 -33.50390625 126.34375 Z M-92.50390625 130.34375 C-92.50390625 132.32375 -92.50390625 134.30375 -92.50390625 136.34375 C-88.54390625 136.34375 -84.58390625 136.34375 -80.50390625 136.34375 C-80.50390625 134.36375 -80.50390625 132.38375 -80.50390625 130.34375 C-84.46390625 130.34375 -88.42390625 130.34375 -92.50390625 130.34375 Z M-33.50390625 140.34375 C-33.50390625 143.97375 -33.50390625 147.60375 -33.50390625 151.34375 C-24.6989468 149.10947744 -24.6989468 149.10947744 -16.50390625 145.34375 C-16.50390625 143.69375 -16.50390625 142.04375 -16.50390625 140.34375 C-22.11390625 140.34375 -27.72390625 140.34375 -33.50390625 140.34375 Z M-92.50390625 144.34375 C-90.9923172 148.43192019 -90.9923172 148.43192019 -88.12109375 149.390625 C-87.21617188 149.62265625 -86.31125 149.8546875 -85.37890625 150.09375 C-84.46882813 150.33609375 -83.55875 150.5784375 -82.62109375 150.828125 C-81.92242187 150.99828125 -81.22375 151.1684375 -80.50390625 151.34375 C-80.50390625 149.03375 -80.50390625 146.72375 -80.50390625 144.34375 C-84.46390625 144.34375 -88.42390625 144.34375 -92.50390625 144.34375 Z " fill="#000000" transform="translate(212.50390625,49.65625)"/>
<path d="M0 0 C2.22637678 1.81158605 4.40471165 3.66994556 6.5625 5.5625 C7.45453125 6.34109375 8.3465625 7.1196875 9.265625 7.921875 C29.04813416 26.4602012 41.92506164 54.75721365 42.8984375 81.83984375 C43.31471446 112.51625331 36.24998677 138.36941924 16.5625 162.5625 C15.83675781 163.46613281 15.11101562 164.36976563 14.36328125 165.30078125 C4.23896169 177.17837856 -9.12544479 187.26519571 -23.4375 193.5625 C-24.0975 193.5625 -24.7575 193.5625 -25.4375 193.5625 C-25.65921875 194.36042969 -25.8809375 195.15835938 -26.109375 195.98046875 C-27.82161946 200.59849277 -30.20017719 204.63556306 -32.6875 208.875 C-33.77841019 210.75849731 -34.86820771 212.6426394 -35.95703125 214.52734375 C-36.52760254 215.51331543 -37.09817383 216.49928711 -37.68603516 217.51513672 C-40.62649417 222.6312239 -43.49942271 227.78475466 -46.375 232.9375 C-47.54539218 235.03004901 -48.71596586 237.12249653 -49.88671875 239.21484375 C-51.68873904 242.43612344 -53.49059673 245.65749238 -55.29150391 248.87939453 C-57.08677703 252.08817914 -58.88658192 255.29438099 -60.6875 258.5 C-61.51109009 259.97509033 -61.51109009 259.97509033 -62.35131836 261.47998047 C-62.85928955 262.38248535 -63.36726074 263.28499023 -63.890625 264.21484375 C-64.33567383 265.00882568 -64.78072266 265.80280762 -65.23925781 266.62084961 C-66.4375 268.5625 -66.4375 268.5625 -68.4375 270.5625 C-70.42884827 270.88729858 -70.42884827 270.88729858 -72.92602539 270.98974609 C-74.34896156 271.05085068 -74.34896156 271.05085068 -75.80064392 271.1131897 C-76.84740799 271.14544647 -77.89417206 271.17770325 -78.97265625 271.2109375 C-80.62443626 271.26862808 -80.62443626 271.26862808 -82.30958557 271.32748413 C-96.44286106 271.74832275 -110.57204869 271.48731689 -124.70550537 271.22589111 C-127.64853712 271.17381158 -130.59167588 271.13073693 -133.53485012 271.08759499 C-136.38381959 271.04493316 -139.23269329 270.99750082 -142.08156013 270.94849777 C-144.08578411 270.91465866 -146.09006513 270.88425469 -148.09434509 270.85391235 C-149.29482986 270.83073944 -150.49531464 270.80756653 -151.73217773 270.78369141 C-152.78928452 270.76513092 -153.8463913 270.74657043 -154.93553162 270.72744751 C-157.4375 270.5625 -157.4375 270.5625 -159.4375 269.5625 C-159.62766354 264.60611813 -159.11980963 260.73662018 -157.5390625 256.04296875 C-157.14203125 254.85638672 -156.745 253.66980469 -156.3359375 252.44726562 C-155.91570312 251.22716797 -155.49546875 250.00707031 -155.0625 248.75 C-154.65 247.51056641 -154.2375 246.27113281 -153.8125 244.99414062 C-150.71166004 235.83666004 -150.71166004 235.83666004 -148.4375 233.5625 C-146.4375 233.625 -146.4375 233.625 -144.4375 234.5625 C-142.4375 239.5625 -142.4375 239.5625 -149.4375 261.5625 C-126.0075 261.5625 -102.5775 261.5625 -78.4375 261.5625 C-87.10085338 244.89584781 -87.10085338 244.89584781 -96.375 228.625 C-99.94681434 222.66399093 -103.4171777 216.73338152 -106.43359375 210.46875 C-112.37637604 198.27257653 -117.09039356 192.03474125 -129.50195312 186.5078125 C-153.07231251 174.99615363 -168.62105265 149.53534076 -177.78125 126.12890625 C-187.27241983 97.90705658 -185.27698787 66.39472692 -172.5859375 39.5234375 C-168.43895553 31.20331953 -163.33204476 23.75790981 -157.4375 16.5625 C-156.75171875 15.71171875 -156.0659375 14.8609375 -155.359375 13.984375 C-117.19160425 -30.96877722 -45.73756978 -35.79680269 0 0 Z M-149.2578125 19.50390625 C-155.45702494 26.62257375 -160.10647518 34.23061817 -164.4375 42.5625 C-164.90929687 43.44164062 -165.38109375 44.32078125 -165.8671875 45.2265625 C-177.61921694 68.80361534 -178.41918517 97.20996438 -170.53808594 122.06030273 C-165.96263135 135.47414387 -159.0077259 148.06984268 -149.4375 158.5625 C-148.9842334 159.06346191 -148.5309668 159.56442383 -148.06396484 160.08056641 C-137.82889934 171.25493651 -125.63722366 180.88261054 -111.4375 186.5625 C-110.7775 186.5625 -110.1175 186.5625 -109.4375 186.5625 C-109.02914917 187.63395264 -109.02914917 187.63395264 -108.61254883 188.72705078 C-107.43479729 191.56902178 -106.09424239 194.22125961 -104.63671875 196.9296875 C-104.07815186 197.96883301 -103.51958496 199.00797852 -102.9440918 200.07861328 C-102.3437915 201.1870459 -101.74349121 202.29547852 -101.125 203.4375 C-100.50343018 204.58847168 -99.88186035 205.73944336 -99.24145508 206.92529297 C-93.59950557 217.34819535 -87.78196877 227.66926153 -81.9140625 237.96630859 C-79.63714717 241.96973413 -77.38031736 245.98437945 -75.125 250 C-74.74561279 250.67498535 -74.36622559 251.3499707 -73.9753418 252.04541016 C-73.12914562 253.5509669 -72.28327838 255.05670851 -71.4375 256.5625 C-67.71201037 255.32067012 -67.5332213 254.42101468 -65.7578125 251.0234375 C-64.99295532 249.58158081 -64.99295532 249.58158081 -64.21264648 248.1105957 C-63.66809814 247.06347412 -63.1235498 246.01635254 -62.5625 244.9375 C-61.39113663 242.7295056 -60.21791208 240.52249772 -59.04296875 238.31640625 C-58.44403809 237.1886377 -57.84510742 236.06086914 -57.22802734 234.89892578 C-54.00132964 228.88637453 -50.64376832 222.94841987 -47.24023438 217.03442383 C-44.53141677 212.32041456 -41.92070463 207.59366274 -39.48046875 202.734375 C-33.63952909 191.34674218 -29.09716219 185.28311342 -17.23632812 180.39160156 C-12.10971001 178.02868149 -7.76482042 174.12687687 -3.4375 170.5625 C-2.50164062 169.79164063 -1.56578125 169.02078125 -0.6015625 168.2265625 C19.14084777 151.13859395 32.04283899 126.61525298 34.5625 100.5625 C36.39603751 71.2684166 29.30796243 43.51219419 9.79296875 21.0078125 C9.05691406 20.20085938 8.32085937 19.39390625 7.5625 18.5625 C6.87800781 17.79679687 6.19351563 17.03109375 5.48828125 16.2421875 C-8.7928301 1.08995475 -27.50245778 -8.24345419 -47.4375 -13.4375 C-48.37078125 -13.68371094 -49.3040625 -13.92992187 -50.265625 -14.18359375 C-87.06905713 -21.98549091 -124.08792733 -7.40214327 -149.2578125 19.50390625 Z " fill="#000000" transform="translate(226.4375,32.4375)"/>
</svg>
