<?xml version="1.0" encoding="UTF-8"?>
<svg version="1.1" xmlns="http://www.w3.org/2000/svg" width="313" height="313">
<path d="M0 0 C0.8271199 -0.00979385 1.65423981 -0.01958771 2.50642395 -0.02967834 C29.07410933 -0.27930135 53.6957127 1.72764228 79.06640625 10.23828125 C79.91477051 10.52155273 80.76313477 10.80482422 81.63720703 11.09667969 C99.71612404 17.26730759 121.30381969 25.47569469 135.06640625 39.23828125 C135.16666524 40.80090349 135.19716376 42.36805117 135.20011902 43.93388367 C135.20651649 45.45800873 135.20651649 45.45800873 135.21304321 47.01292419 C135.21259003 48.13747513 135.21213684 49.26202606 135.21166992 50.4206543 C135.21502853 51.5980014 135.21838715 52.77534851 135.22184753 53.9883728 C135.22974826 57.23089569 135.23302709 60.47338025 135.23366332 63.71591163 C135.23437363 65.74607922 135.23650783 67.7762401 135.23916054 69.80640602 C135.24843091 76.90292409 135.25249432 83.99942334 135.25170898 91.09594727 C135.25111143 97.68438795 135.26159516 104.2727459 135.27745265 110.8611657 C135.29060675 116.53100073 135.29588943 122.20080904 135.29525357 127.87065917 C135.29500039 131.25031133 135.29774961 134.62989039 135.30843163 138.00952721 C135.38403017 166.97554021 133.01066875 193.54975007 113.06640625 216.23828125 C112.463125 216.98464844 111.85984375 217.73101562 111.23828125 218.5 C101.38071367 230.36635761 87.39983893 238.55082571 74.69140625 247.05078125 C73.06682672 248.14203248 71.44256407 249.23375559 69.81860352 250.32592773 C66.51471079 252.54761299 63.20962631 254.76750844 59.90380859 256.98632812 C52.58758612 261.90046792 45.29636381 266.85147881 38.00390625 271.80078125 C36.75802113 272.64630783 35.51209152 273.49176885 34.26611328 274.3371582 C33.67324524 274.73964279 33.0803772 275.14212738 32.46954346 275.55680847 C31.32013751 276.3350166 30.16910224 277.11082472 29.01629639 277.88398743 C26.21173683 279.76655585 23.44044104 281.68166025 20.71142578 283.67138672 C19.6542334 284.42436035 18.59704102 285.17733398 17.5078125 285.953125 C16.57783447 286.63366943 15.64785645 287.31421387 14.68969727 288.01538086 C12.06640625 289.23828125 12.06640625 289.23828125 9.47753906 288.61206055 C7.24322423 287.33902596 5.13366841 286.0447252 3.046875 284.54296875 C2.28318604 283.99946777 1.51949707 283.4559668 0.73266602 282.89599609 C-0.08532471 282.3077002 -0.90331543 281.7194043 -1.74609375 281.11328125 C-10.70317364 274.74742565 -19.79681922 268.61372801 -28.97387695 262.56982422 C-29.93898193 261.93189941 -30.90408691 261.29397461 -31.8984375 260.63671875 C-32.75042725 260.07645996 -33.60241699 259.51620117 -34.48022461 258.93896484 C-36.93359375 257.23828125 -36.93359375 257.23828125 -39.56079102 255.08837891 C-41.87349174 253.07278525 -41.87349174 253.07278525 -44.93359375 252.23828125 C-44.93359375 251.57828125 -44.93359375 250.91828125 -44.93359375 250.23828125 C-45.65651611 249.97418457 -46.37943848 249.71008789 -47.12426758 249.43798828 C-49.98027057 248.21834817 -52.31943469 246.79028623 -54.8828125 245.04296875 C-55.81416016 244.40875 -56.74550781 243.77453125 -57.70507812 243.12109375 C-58.66736328 242.45851562 -59.62964844 241.7959375 -60.62109375 241.11328125 C-61.56404297 240.47390625 -62.50699219 239.83453125 -63.47851562 239.17578125 C-84.83228554 224.55835525 -101.95066743 207.83974142 -108.93359375 182.23828125 C-109.18308777 181.35511734 -109.43258179 180.47195343 -109.68963623 179.56202698 C-112.81932154 166.51953427 -112.49864901 153.24083292 -112.56709123 139.89904022 C-112.57820934 137.78474219 -112.59249916 135.67048639 -112.6076107 133.55621338 C-112.65376544 126.91997241 -112.68744809 120.28383588 -112.70362645 113.64745331 C-112.72243859 106.02130698 -112.7842226 98.39706117 -112.88212854 90.7715292 C-112.95556798 84.84502137 -112.99050449 78.91905337 -112.9964897 72.9920969 C-113.00092322 69.46399759 -113.02146463 65.93779816 -113.0825901 62.41018677 C-113.1494121 58.48507187 -113.13641228 54.56239789 -113.11645508 50.63671875 C-113.1476947 49.47920609 -113.17893433 48.32169342 -113.21112061 47.12910461 C-113.08135509 39.4261064 -113.08135509 39.4261064 -109.78532982 36.01502991 C-107.23849402 34.20508208 -104.69486379 32.69528375 -101.93359375 31.23828125 C-100.43934394 30.33103905 -98.94784517 29.41922602 -97.4609375 28.5 C-68.07853768 11.74519601 -34.07741576 0.33632043 0 0 Z M-93.93359375 41.23828125 C-94.95928467 41.87121597 -95.98497559 42.5041507 -97.04174805 43.15626526 C-99.07461 44.88781426 -99.84219585 45.8670233 -100.48600101 48.48215771 C-100.6953954 51.36782513 -100.70967541 54.19973531 -100.66235352 57.09277344 C-100.66804855 58.18785721 -100.67374359 59.28294098 -100.67961121 60.41120911 C-100.69073473 64.03651167 -100.65860243 67.66001332 -100.625 71.28515625 C-100.62142099 73.81561064 -100.62006588 76.34606907 -100.62083435 78.87652588 C-100.6161382 84.18960303 -100.59201306 89.50206052 -100.55102539 94.81494141 C-100.50414021 100.91385616 -100.4880212 107.01220477 -100.49023205 113.11128688 C-100.49208127 119.01398123 -100.47625115 124.91648932 -100.45185661 130.81912994 C-100.44238692 133.3114641 -100.43641581 135.80381433 -100.43417549 138.29616547 C-100.38099516 166.56755085 -96.93835225 190.05649234 -77.4375 211.8515625 C-74.19436714 214.94291067 -70.51794589 217.55001714 -66.93359375 220.23828125 C-66.93359375 191.85828125 -66.93359375 163.47828125 -66.93359375 134.23828125 C-30.96359375 134.23828125 5.00640625 134.23828125 42.06640625 134.23828125 C42.06640625 163.93828125 42.06640625 193.63828125 42.06640625 224.23828125 C8.07640625 224.23828125 -25.91359375 224.23828125 -60.93359375 224.23828125 C-57.84748796 227.32438704 -55.49028371 229.34156534 -51.921875 231.65234375 C-50.32786865 232.69696777 -50.32786865 232.69696777 -48.70166016 233.76269531 C-48.10597229 234.15251587 -47.51028442 234.54233643 -46.89654541 234.94396973 C-43.08879482 237.4546864 -39.31668666 240.01850235 -35.5390625 242.57421875 C-33.82360445 243.73312731 -32.10810902 244.89198054 -30.39257812 246.05078125 C-27.76024351 247.82961686 -25.12801214 249.60860508 -22.49584961 251.38769531 C-21.63419189 251.9700293 -20.77253418 252.55236328 -19.88476562 253.15234375 C-19.0290799 253.73075012 -18.17339417 254.30915649 -17.29177856 254.90509033 C-15.59427132 256.05097891 -13.89561753 257.19517101 -12.19577026 258.33758545 C-8.26569401 260.97927283 -4.35044927 263.63665773 -0.47119141 266.35253906 C0.21625656 266.82768951 0.90370453 267.30283997 1.61198425 267.79238892 C2.88481791 268.67279196 4.15106054 269.56283368 5.40913391 270.46420288 C8.42274662 272.67229692 8.42274662 272.67229692 11.99055481 272.99855042 C14.32436244 272.14380622 16.16781648 271.05540825 18.2421875 269.68481445 C19.46627319 268.88180656 19.46627319 268.88180656 20.71508789 268.06257629 C21.59414795 267.47731674 22.47320801 266.89205719 23.37890625 266.2890625 C24.30243896 265.67999557 25.22597168 265.07092865 26.17749023 264.44340515 C28.14289621 263.14554873 30.10647086 261.84491549 32.06835938 260.54174805 C34.99584749 258.59763847 37.92896242 256.66229531 40.86328125 254.72851562 C93.21930337 222.78245461 93.21930337 222.78245461 121.40872192 170.83526611 C124.19119162 153.71666377 123.18052198 135.70282867 123.34904385 118.3808651 C123.42621854 110.56569568 123.57025541 102.75796047 123.80343002 94.94584882 C123.96284599 89.41428557 124.04451692 83.88472622 124.07018715 78.35094607 C124.08755508 75.05901 124.14807155 71.77770475 124.27270317 68.48783493 C125.25936414 54.875119 125.25936414 54.875119 120.03551102 42.92072296 C114.84750653 38.69843874 107.03069081 33.23828125 100.06640625 33.23828125 C99.73640625 63.26828125 99.40640625 93.29828125 99.06640625 124.23828125 C96.59140625 121.76328125 96.59140625 121.76328125 94.06640625 119.23828125 C91.96988653 117.85858292 91.96988653 117.85858292 89.87890625 116.92578125 C89.20472656 116.59964844 88.53054687 116.27351563 87.8359375 115.9375 C86.07350901 115.11578334 86.07350901 115.11578334 84.06640625 115.23828125 C84.06640625 85.86828125 84.06640625 56.49828125 84.06640625 26.23828125 C80.76640625 24.91828125 77.46640625 23.59828125 74.06640625 22.23828125 C73.57140625 65.79828125 73.57140625 65.79828125 73.06640625 110.23828125 C68.44640625 108.58828125 63.82640625 106.93828125 59.06640625 105.23828125 C58.73640625 76.19828125 58.40640625 47.15828125 58.06640625 17.23828125 C54.76640625 16.57828125 51.46640625 15.91828125 48.06640625 15.23828125 C48.06640625 43.61828125 48.06640625 71.99828125 48.06640625 101.23828125 C43.44640625 99.58828125 38.82640625 97.93828125 34.06640625 96.23828125 C33.40640625 96.23828125 32.74640625 96.23828125 32.06640625 96.23828125 C32.06640625 68.84828125 32.06640625 41.45828125 32.06640625 13.23828125 C-5.48806497 0.72012418 -62.5649081 21.56628807 -93.93359375 41.23828125 Z M-58.93359375 142.23828125 C-58.93359375 150.48828125 -58.93359375 158.73828125 -58.93359375 167.23828125 C-28.24359375 167.23828125 2.44640625 167.23828125 34.06640625 167.23828125 C34.06640625 158.98828125 34.06640625 150.73828125 34.06640625 142.23828125 C3.37640625 142.23828125 -27.31359375 142.23828125 -58.93359375 142.23828125 Z M-58.93359375 178.23828125 C-58.93359375 190.77828125 -58.93359375 203.31828125 -58.93359375 216.23828125 C-28.24359375 216.23828125 2.44640625 216.23828125 34.06640625 216.23828125 C34.06640625 203.69828125 34.06640625 191.15828125 34.06640625 178.23828125 C3.37640625 178.23828125 -27.31359375 178.23828125 -58.93359375 178.23828125 Z " fill="#000000" transform="translate(144.93359375,11.76171875)"/>
<path d="M0 0 C8.2132599 1.52527977 15.81807607 4.38012534 23.59765625 7.33984375 C25.00032383 7.8684155 26.40319536 8.39644632 27.80625916 8.92396545 C31.47942135 10.30661731 35.14981271 11.69647965 38.81964111 13.08795166 C42.54022847 14.49723284 46.26337511 15.89971738 49.98632812 17.30273438 C54.18051979 18.88393123 58.37441335 20.46589817 62.56666565 22.05223083 C63.20327338 22.29298623 63.83988111 22.53374163 64.49577999 22.78179264 C66.28778107 23.46081628 68.07838467 24.14352451 69.868927 24.8263855 C71.77473965 25.54073785 73.6883351 26.23528408 75.61422729 26.89358521 C80.83240175 28.68342553 80.83240175 28.68342553 82.6875 32.1875 C83.06007656 36.732934 82.35207768 40.07987053 80 44 C77 46 77 46 73.88647461 45.82348633 C69.34684585 44.86160632 65.15870707 43.43914548 60.81640625 41.82421875 C59.935186 41.50258255 59.05396576 41.18094635 58.14604187 40.8495636 C55.28234517 39.80226424 52.42240711 38.74509902 49.5625 37.6875 C47.5903446 36.9637148 45.6180125 36.24041088 43.64550781 35.51757812 C27.06478417 29.43182091 10.51837731 23.25292259 -6 17 C-5.33795085 12.62356267 -4.34291714 9.13126169 -2.4375 5.125 C-1.75494141 3.67480469 -1.75494141 3.67480469 -1.05859375 2.1953125 C-0.70925781 1.47085938 -0.35992187 0.74640625 0 0 Z " fill="#000000" transform="translate(154,109)"/>
<path d="M0 0 C11.68147567 3.64931501 11.68147567 3.64931501 15.80078125 7.71484375 C17.08744168 11.79619537 16.63758198 13.93810593 14.80859375 17.75 C14.35500488 18.71478271 13.90141602 19.67956543 13.43408203 20.67358398 C12.93634277 21.69782471 12.43860352 22.72206543 11.92578125 23.77734375 C10.90407795 25.93578633 9.88325857 28.09464752 8.86328125 30.25390625 C8.34765625 31.33575195 7.83203125 32.41759766 7.30078125 33.53222656 C4.72984207 38.98710337 2.30506554 44.50712335 -0.11669922 50.02954102 C-6.21009554 63.72572054 -6.21009554 63.72572054 -9.19921875 66.71484375 C-16.29872016 66.5833715 -24.06333945 63.85072305 -29.19921875 58.71484375 C-29.73275857 53.48911758 -28.17520727 49.6587342 -25.98046875 45.03515625 C-25.64430542 44.30473114 -25.30814209 43.57430603 -24.96179199 42.82174683 C-23.88481677 40.48938631 -22.79206541 38.16480248 -21.69921875 35.83984375 C-20.99510714 34.316862 -20.29197362 32.79342765 -19.58984375 31.26953125 C-17.49271094 26.73534442 -15.35486754 22.22146652 -13.19921875 17.71484375 C-12.8340918 16.94845581 -12.46896484 16.18206787 -12.09277344 15.39245605 C-11.02369929 13.15895599 -9.94204666 10.93205999 -8.85546875 8.70703125 C-8.53195435 8.03068634 -8.20843994 7.35434143 -7.87512207 6.65750122 C-4.30737469 -0.55850507 -4.30737469 -0.55850507 0 0 Z " fill="#000000" transform="translate(144.19921875,78.28515625)"/>
<path d="M0 0 C3.78611227 0.54087318 5.55400767 2.11722332 8 5 C8 5.66 8 6.32 8 7 C9.01320313 6.91298828 9.01320313 6.91298828 10.046875 6.82421875 C11.38492188 6.75654297 11.38492188 6.75654297 12.75 6.6875 C13.63171875 6.62949219 14.5134375 6.57148437 15.421875 6.51171875 C18 7 18 7 19.99609375 9.046875 C20.98802734 10.50867188 20.98802734 10.50867188 22 12 C22.41685059 12.57854736 22.83370117 13.15709473 23.26318359 13.75317383 C24.64303566 15.67024497 25.97983124 17.61239334 27.3125 19.5625 C27.77978516 20.22185547 28.24707031 20.88121094 28.72851562 21.56054688 C29.38303711 22.52250977 29.38303711 22.52250977 30.05078125 23.50390625 C30.44950439 24.07955322 30.84822754 24.6552002 31.2590332 25.24829102 C32.21840375 27.51632517 31.79543735 28.72112039 31 31 C29.68 31 28.36 31 27 31 C25.65966797 29.56298828 25.65966797 29.56298828 24.4921875 27.5703125 C24.06292969 26.85746094 23.63367188 26.14460938 23.19140625 25.41015625 C22.75699219 24.65605469 22.32257813 23.90195313 21.875 23.125 C20.99953234 21.64716975 20.1220147 20.17055146 19.2421875 18.6953125 C18.8591748 18.03547363 18.47616211 17.37563477 18.08154297 16.69580078 C16.98355303 14.83958713 16.98355303 14.83958713 15 13 C13.62668819 12.92877013 12.24998881 12.91594094 10.875 12.9375 C6.25629456 12.57818418 4.45335969 10.87805295 1.4375 7.4375 C0.26837976 5.97666944 -0.8856397 4.50302002 -2 3 C-1.34 2.01 -0.68 1.02 0 0 Z " fill="#000000" transform="translate(82,113)"/>
<path d="M0 0 C3.63910523 0.32109752 4.88940783 0.8921052 7.5625 3.5 C10.61991127 6.34243704 12.97450596 6.20252939 17.0625 6.1875 C20.20703125 6.296875 20.20703125 6.296875 23 7 C25.8811454 10.36431886 28 14.49164962 28 19 C26.68 19.33 25.36 19.66 24 20 C20 14.25 20 14.25 20 12 C19.32195312 12.0928125 18.64390625 12.185625 17.9453125 12.28125 C11.63423616 12.77075177 8.29423982 12.04810904 3.3125 8 C1.85210832 6.69177977 0.40607898 5.36642816 -1 4 C-0.67 2.68 -0.34 1.36 0 0 Z " fill="#000000" transform="translate(76,124)"/>
<path d="M0 0 C1.670625 0.37125 1.670625 0.37125 3.375 0.75 C3.705 1.41 4.035 2.07 4.375 2.75 C3.30091043 5.35474038 2.17454367 7.84966038 0.9375 10.375 C0.59912109 11.08140625 0.26074219 11.7878125 -0.08789062 12.515625 C-0.92654879 14.26381384 -1.77487847 16.00735686 -2.625 17.75 C-4.605 17.09 -6.585 16.43 -8.625 15.75 C-9.95265047 9.83592064 -9.4629176 6.9190642 -6.625 1.75 C-3.625 -0.25 -3.625 -0.25 0 0 Z " fill="#000000" transform="translate(123.625,97.25)"/>
<path d="M0 0 C0.66 1.65 1.32 3.3 2 5 C1.45730469 5.39832031 0.91460937 5.79664063 0.35546875 6.20703125 C-0.35996094 6.73683594 -1.07539063 7.26664063 -1.8125 7.8125 C-2.87404297 8.59560547 -2.87404297 8.59560547 -3.95703125 9.39453125 C-6.01271277 10.92384008 -6.01271277 10.92384008 -7.59375 12.71875 C-8.0578125 13.1415625 -8.521875 13.564375 -9 14 C-11.6875 13.6875 -11.6875 13.6875 -14 13 C-13.70184558 9.82938228 -12.9053972 8.90828236 -10.56640625 6.640625 C-9.57511719 5.85171875 -8.58382812 5.0628125 -7.5625 4.25 C-6.57378906 3.45078125 -5.58507812 2.6515625 -4.56640625 1.828125 C-2 0 -2 0 0 0 Z " fill="#000000" transform="translate(155,130)"/>
</svg>
