<?xml version="1.0" encoding="UTF-8"?>
<svg version="1.1" xmlns="http://www.w3.org/2000/svg" width="313" height="313">
<path d="M0 0 C1.40074516 -0.00845947 1.40074516 -0.00845947 2.82978821 -0.01708984 C3.85738754 -0.01304138 4.88498688 -0.00899292 5.94372559 -0.00482178 C7.02345139 -0.00832642 8.10317719 -0.01183105 9.21562195 -0.01544189 C12.79888259 -0.0242731 16.38194717 -0.01840509 19.96520996 -0.01165771 C22.44620807 -0.01300396 24.92720592 -0.01494416 27.40820312 -0.01745605 C33.28129025 -0.02078801 39.15430574 -0.01376952 45.02738237 -0.00315452 C49.71615991 0.00435503 54.40485351 0.00169959 59.09362793 -0.0067749 C65.54740339 -0.01834076 72.00109749 -0.02019841 78.45487976 -0.01366425 C80.92054768 -0.01232632 83.38621903 -0.01398044 85.85188293 -0.01862335 C89.29274767 -0.02368004 92.73334929 -0.01599028 96.17419434 -0.00482178 C97.71559334 -0.01089447 97.71559334 -0.01089447 99.28813171 -0.01708984 C100.22196182 -0.0114502 101.15579193 -0.00581055 102.11791992 0 C102.93203087 0.00075405 103.74614182 0.0015081 104.58492279 0.002285 C106.55895996 0.25396729 106.55895996 0.25396729 108.55895996 2.25396729 C108.78601074 4.22515869 108.78601074 4.22515869 108.75427246 6.60552979 C108.74782715 7.45631104 108.74138184 8.30709229 108.73474121 9.18365479 C108.70960449 10.51783447 108.70960449 10.51783447 108.68395996 11.87896729 C108.67493652 12.77615479 108.66591309 13.67334229 108.65661621 14.59771729 C108.63300966 16.81673314 108.60008306 19.03521806 108.55895996 21.25396729 C109.92412247 21.24730545 109.92412247 21.24730545 111.31686401 21.24050903 C119.88102575 21.20048553 128.44515622 21.17001003 137.00938988 21.15034294 C141.41267247 21.13989211 145.81587799 21.12570932 150.21911621 21.10308838 C154.4660582 21.08140617 158.71292592 21.06940846 162.95991898 21.0642128 C164.58269038 21.06050871 166.20545758 21.05327583 167.82819748 21.04250717 C170.09580113 21.02805349 172.36309524 21.02598674 174.6307373 21.0269165 C175.92313324 21.02247528 177.21552917 21.01803406 178.54708862 21.01345825 C181.55895996 21.25396729 181.55895996 21.25396729 183.55895996 23.25396729 C183.22895996 24.90396729 182.89895996 26.55396729 182.55895996 28.25396729 C158.13895996 28.25396729 133.71895996 28.25396729 108.55895996 28.25396729 C108.55895996 37.16396729 108.55895996 46.07396729 108.55895996 55.25396729 C132.64895996 55.25396729 156.73895996 55.25396729 181.55895996 55.25396729 C182.54895996 57.72896729 182.54895996 57.72896729 183.55895996 60.25396729 C182.49333191 61.73268127 182.49333191 61.73268127 180.55895996 63.25396729 C177.46479797 63.61473083 177.46479797 63.61473083 173.60900879 63.59454346 C172.90631363 63.59498154 172.20361847 63.59541962 171.47962952 63.59587097 C169.15813361 63.59378176 166.83736087 63.57044547 164.51599121 63.54693604 C162.90602513 63.54134053 161.29605394 63.53707022 159.68608093 63.53407288 C155.44941089 63.52262047 151.21304956 63.49315007 146.97650146 63.45996094 C142.65311866 63.42926848 138.32968595 63.41556931 134.00622559 63.40045166 C125.52366206 63.36828058 117.04134942 63.31707966 108.55895996 63.25396729 C108.56419678 63.82429688 108.56943359 64.39462646 108.5748291 64.98223877 C108.59554217 67.55197052 108.60860186 70.12168475 108.62145996 72.69146729 C108.62983887 73.58929932 108.63821777 74.48713135 108.64685059 75.41217041 C108.65007324 76.26617432 108.6532959 77.12017822 108.65661621 78.00006104 C108.66185303 78.79082031 108.66708984 79.58157959 108.67248535 80.39630127 C108.55895996 82.25396729 108.55895996 82.25396729 107.55895996 83.25396729 C105.89278881 83.29460561 104.22507901 83.29668829 102.55895996 83.25396729 C102.60536621 84.27877197 102.65177246 85.30357666 102.69958496 86.35943604 C102.73712007 87.72008384 102.77351837 89.08076334 102.80895996 90.44146729 C102.84247559 91.11500244 102.87599121 91.7885376 102.91052246 92.48248291 C102.98197425 96.14438704 102.67430174 98.0754735 100.66833496 101.17974854 C98.32265529 103.48633354 97.44446264 104.21767619 94.17614746 104.35162354 C92.81876465 104.33422119 92.81876465 104.33422119 91.43395996 104.31646729 C90.06884277 104.30293213 90.06884277 104.30293213 88.67614746 104.28912354 C87.62813965 104.27172119 87.62813965 104.27172119 86.55895996 104.25396729 C86.52157715 105.1163501 86.48419434 105.97873291 86.44567871 106.86724854 C86.04095379 114.38243485 85.33616389 121.8055891 84.24645996 129.25396729 C84.14099854 130.0419873 84.03553711 130.83000732 83.92687988 131.64190674 C83.09911647 136.98577488 81.61012539 140.76594909 78.55895996 145.25396729 C75.55895996 147.25396729 75.55895996 147.25396729 72.55895996 147.25396729 C72.61696777 148.20658447 72.67497559 149.15920166 72.73474121 150.14068604 C73.09716275 160.2100477 73.09716275 160.2100477 70.80895996 164.62896729 C65.83250407 167.11719523 61.01790115 166.64575732 55.55895996 166.25396729 C55.56419678 166.94023193 55.56943359 167.62649658 55.5748291 168.33355713 C55.59556952 171.43201793 55.60861072 174.53046414 55.62145996 177.62896729 C55.62983887 178.70920166 55.63821777 179.78943604 55.64685059 180.90240479 C55.65007324 181.93365479 55.6532959 182.96490479 55.65661621 184.02740479 C55.66185303 184.98050537 55.66708984 185.93360596 55.67248535 186.91558838 C55.55895996 189.25396729 55.55895996 189.25396729 54.55895996 191.25396729 C52.57895996 191.25396729 50.59895996 191.25396729 48.55895996 191.25396729 C47.28034381 188.69673499 47.44559387 186.88659626 47.46130371 184.02740479 C47.46452637 182.99615479 47.46774902 181.96490479 47.47106934 180.90240479 C47.4836377 179.28205322 47.4836377 179.28205322 47.49645996 177.62896729 C47.50097168 176.54099854 47.5054834 175.45302979 47.51013184 174.33209229 C47.5219422 171.6393294 47.53841218 168.9466754 47.55895996 166.25396729 C46.73911621 166.30037354 45.91927246 166.34677979 45.07458496 166.39459229 C43.99692871 166.43068604 42.91927246 166.46677979 41.80895996 166.50396729 C40.74161621 166.55037354 39.67427246 166.59677979 38.57458496 166.64459229 C34.8846259 166.16661831 33.8326927 165.12269551 31.55895996 162.25396729 C30.11688055 159.36980846 30.46501109 156.836752 30.49645996 153.62896729 C30.5054834 152.44045166 30.51450684 151.25193604 30.52380371 150.02740479 C30.53540527 149.11217041 30.54700684 148.19693604 30.55895996 147.25396729 C29.83708496 147.21271729 29.11520996 147.17146729 28.37145996 147.12896729 C24.50060113 145.92470009 22.5581982 143.65145724 20.55895996 140.25396729 C19.76750904 137.57454617 19.24232886 135.29461351 18.87145996 132.56646729 C18.75826416 131.84402832 18.64506836 131.12158936 18.52844238 130.3772583 C17.22317307 121.71030704 16.37298981 112.97845186 15.55895996 104.25396729 C14.97888184 104.3119751 14.39880371 104.36998291 13.80114746 104.42974854 C9.68384797 104.66754636 6.46333088 104.73999405 3.01989746 102.27349854 C-0.20734846 98.31371901 -0.15970791 95.87177948 0.18395996 90.94146729 C0.21103027 90.20090088 0.23810059 89.46033447 0.26599121 88.69732666 C0.33627712 86.8816073 0.44388907 85.06739927 0.55895996 83.25396729 C-1.42104004 83.25396729 -3.40104004 83.25396729 -5.44104004 83.25396729 C-6.95008134 80.23588468 -6.58836343 77.11715415 -6.58630371 73.80670166 C-6.58966232 73.03909012 -6.59302094 72.27147858 -6.59648132 71.48060608 C-6.60600173 68.93629348 -6.60793486 66.3920466 -6.60900879 63.84771729 C-6.61222017 62.0841672 -6.61558415 60.32061739 -6.61909485 58.55706787 C-6.62508854 54.85820904 -6.62693446 51.1593736 -6.62634277 47.46051025 C-6.62624104 42.71213484 -6.63990406 37.96390857 -6.65711498 33.21556854 C-6.6682115 29.57311306 -6.67026272 25.93069393 -6.66973305 22.28822327 C-6.6709163 20.53706853 -6.67535729 18.78591295 -6.68306541 17.03477478 C-6.69281985 14.59015319 -6.69000566 12.14585933 -6.68395996 9.70123291 C-6.68957947 8.97285721 -6.69519897 8.24448151 -6.70098877 7.49403381 C-6.66518479 1.82123035 -5.75682589 0.00533213 0 0 Z M1.55895996 8.25396729 C1.55895996 30.69396729 1.55895996 53.13396729 1.55895996 76.25396729 C34.55895996 76.25396729 67.55895996 76.25396729 101.55895996 76.25396729 C101.55895996 53.81396729 101.55895996 31.37396729 101.55895996 8.25396729 C68.55895996 8.25396729 35.55895996 8.25396729 1.55895996 8.25396729 Z M7.55895996 83.25396729 C7.53209443 85.23306126 7.51262621 87.21225699 7.49645996 89.19146729 C7.4848584 90.29361572 7.47325684 91.39576416 7.46130371 92.53131104 C7.24633425 95.16844362 7.24633425 95.16844362 8.55895996 96.25396729 C10.89193429 96.29489666 13.22601221 96.29638452 15.55895996 96.25396729 C15.55895996 91.96396729 15.55895996 87.67396729 15.55895996 83.25396729 C12.91895996 83.25396729 10.27895996 83.25396729 7.55895996 83.25396729 Z M22.55895996 83.25396729 C22.55895996 87.54396729 22.55895996 91.83396729 22.55895996 96.25396729 C26.51895996 96.25396729 30.47895996 96.25396729 34.55895996 96.25396729 C34.55895996 91.96396729 34.55895996 87.67396729 34.55895996 83.25396729 C30.59895996 83.25396729 26.63895996 83.25396729 22.55895996 83.25396729 Z M41.55895996 83.25396729 C41.55895996 87.54396729 41.55895996 91.83396729 41.55895996 96.25396729 C47.82895996 96.25396729 54.09895996 96.25396729 60.55895996 96.25396729 C60.55895996 91.96396729 60.55895996 87.67396729 60.55895996 83.25396729 C54.28895996 83.25396729 48.01895996 83.25396729 41.55895996 83.25396729 Z M68.55895996 83.25396729 C68.55895996 87.54396729 68.55895996 91.83396729 68.55895996 96.25396729 C72.51895996 96.25396729 76.47895996 96.25396729 80.55895996 96.25396729 C80.55895996 91.96396729 80.55895996 87.67396729 80.55895996 83.25396729 C76.59895996 83.25396729 72.63895996 83.25396729 68.55895996 83.25396729 Z M87.55895996 83.25396729 C87.55895996 87.54396729 87.55895996 91.83396729 87.55895996 96.25396729 C89.86895996 96.25396729 92.17895996 96.25396729 94.55895996 96.25396729 C94.55895996 91.96396729 94.55895996 87.67396729 94.55895996 83.25396729 C92.24895996 83.25396729 89.93895996 83.25396729 87.55895996 83.25396729 Z M23.55895996 104.25396729 C24.24690483 114.29103383 24.24690483 114.29103383 25.55895996 124.25396729 C42.38895996 124.25396729 59.21895996 124.25396729 76.55895996 124.25396729 C78.71832662 114.302753 78.71832662 114.302753 79.55895996 104.25396729 C61.07895996 104.25396729 42.59895996 104.25396729 23.55895996 104.25396729 Z M26.55895996 132.25396729 C27.96267517 137.95582489 27.96267517 137.95582489 30.55895996 140.25396729 C33.60901443 140.46641922 36.56590624 140.55791958 39.61755371 140.55474854 C40.9676931 140.56117622 40.9676931 140.56117622 42.34510803 140.56773376 C44.25077472 140.57348258 46.15646335 140.57397328 48.06213379 140.56964111 C50.98137806 140.5664836 53.8996069 140.58992462 56.81872559 140.61529541 C58.66833368 140.61756855 60.5179445 140.61827183 62.36755371 140.61724854 C63.2426207 140.62645828 64.11768768 140.63566803 65.01927185 140.64515686 C65.8334407 140.63892807 66.64760956 140.63269928 67.4864502 140.62628174 C68.55994972 140.62722588 68.55994972 140.62722588 69.65513611 140.62818909 C72.20520328 140.1269396 73.03133427 139.34367739 74.55895996 137.25396729 C74.88895996 135.60396729 75.21895996 133.95396729 75.55895996 132.25396729 C59.38895996 132.25396729 43.21895996 132.25396729 26.55895996 132.25396729 Z M38.55895996 147.25396729 C38.55895996 151.21396729 38.55895996 155.17396729 38.55895996 159.25396729 C47.13895996 159.25396729 55.71895996 159.25396729 64.55895996 159.25396729 C66.30431595 156.1359333 66.30431595 156.1359333 65.55895996 147.25396729 C56.64895996 147.25396729 47.73895996 147.25396729 38.55895996 147.25396729 Z " fill="#000002" transform="translate(105.4410400390625,50.74603271484375)"/>
<path d="M0 0 C0.95786407 -0.00817749 1.91572815 -0.01635498 2.90261841 -0.02478027 C6.08180104 -0.049653 9.26093899 -0.06615447 12.44018555 -0.08056641 C13.52433432 -0.08589008 14.60848309 -0.09121376 15.72548485 -0.09669876 C21.46297881 -0.12343757 27.20045094 -0.14281079 32.93798828 -0.15722656 C38.87004048 -0.17388278 44.80153801 -0.21866708 50.73338032 -0.26959801 C55.28955234 -0.30322025 59.84559186 -0.31479848 64.40187645 -0.32045364 C66.58879018 -0.32717921 68.7756948 -0.34243493 70.96248817 -0.36634445 C74.02232981 -0.39789251 77.08066406 -0.39804813 80.140625 -0.390625 C81.04522964 -0.40703033 81.94983429 -0.42343567 82.8818512 -0.44033813 C87.35314211 -0.3958996 89.18428289 -0.25704116 92.82545471 2.56686401 C95.00353394 5.51673518 95.40589651 6.91247779 95.4284668 10.53662109 C95.43491211 11.53564453 95.44135742 12.53466797 95.44799805 13.56396484 C95.42866211 14.59650391 95.40932617 15.62904297 95.3894043 16.69287109 C95.40874023 17.72541016 95.42807617 18.75794922 95.44799805 19.82177734 C95.43833008 21.3203125 95.43833008 21.3203125 95.4284668 22.84912109 C95.42282715 23.7546875 95.4171875 24.66025391 95.41137695 25.59326172 C94.43604665 29.51224927 93.01640337 30.76965453 89.7644043 33.19287109 C85.88743714 33.93503742 82.05785256 33.84483285 78.12109375 33.79223633 C76.94339417 33.79617905 75.76569458 33.80012177 74.55230713 33.80418396 C71.3310948 33.80973924 68.11095014 33.79302248 64.88987756 33.76570392 C61.518252 33.74184495 58.14664306 33.74481868 54.77494812 33.74440002 C49.11657792 33.73977574 43.45854481 33.71615491 37.80029297 33.67993164 C31.25467629 33.6381397 24.70936272 33.62061312 18.16362029 33.61731189 C11.19563485 33.61371581 4.22775869 33.59485182 -2.74018121 33.57019162 C-4.74953967 33.56395794 -6.75888981 33.56032493 -8.76825523 33.55715752 C-12.50579936 33.54815522 -16.24301332 33.52580088 -19.98046875 33.49926758 C-21.65505913 33.49827057 -21.65505913 33.49827057 -23.36347961 33.49725342 C-24.37711578 33.48727829 -25.39075195 33.47730316 -26.43510437 33.46702576 C-27.3190623 33.46237525 -28.20302023 33.45772474 -29.11376476 33.45293331 C-31.2355957 33.19287109 -31.2355957 33.19287109 -33.2355957 31.19287109 C-33.16404951 26.13097815 -29.9566741 23.11754075 -26.7355957 19.56787109 C-25.64327248 18.33323469 -24.55214005 17.09754379 -23.4621582 15.86083984 C-22.91849609 15.24772949 -22.37483398 14.63461914 -21.81469727 14.00292969 C-18.75541405 10.49620029 -15.87804342 6.84319469 -12.9777832 3.20458984 C-9.42223577 -0.90103107 -5.05725845 0.02365675 0 0 Z " fill="#000002" transform="translate(199.235595703125,240.80712890625)"/>
<path d="M0 0 C0.95830215 -0.00861557 1.91660431 -0.01723114 2.90394592 -0.02610779 C6.06709918 -0.04878408 9.22936776 -0.04202605 12.39257812 -0.03295898 C14.59306095 -0.03819356 16.79354152 -0.04446942 18.99401855 -0.05174255 C23.60403 -0.06214967 28.21373282 -0.05758023 32.82373047 -0.04296875 C38.73226064 -0.02577475 44.63981893 -0.04928293 50.54824066 -0.08445835 C55.09159798 -0.10641419 59.63472206 -0.1049953 64.17811584 -0.09669304 C66.35662401 -0.09587265 68.53514914 -0.10275278 70.71360779 -0.11746407 C73.75889934 -0.13487727 76.80243546 -0.12039384 79.84765625 -0.09765625 C81.19749352 -0.11519455 81.19749352 -0.11519455 82.57460022 -0.13308716 C87.05862966 -0.0649423 88.83538363 0.05626966 92.43069458 2.97175598 C93.41729568 4.23979317 93.41729568 4.23979317 94.42382812 5.53344727 C94.90770996 6.06744141 95.3915918 6.60143555 95.89013672 7.15161133 C96.47529053 7.84335449 96.47529053 7.84335449 97.07226562 8.54907227 C97.51723389 9.0737207 97.96220215 9.59836914 98.4206543 10.13891602 C100.31581907 12.40035621 102.20963516 14.66277098 104.09326172 16.93383789 C105.28405024 18.36540604 106.48786415 19.78611618 107.69335938 21.20532227 C108.32628906 21.97360352 108.95921875 22.74188477 109.61132812 23.53344727 C110.43697266 24.52344727 110.43697266 24.52344727 111.27929688 25.53344727 C112.70891775 28.03162436 112.71587145 29.69919072 112.42382812 32.53344727 C110.79126622 34.16600917 108.95265932 33.66983951 106.69889832 33.68061829 C105.6767775 33.68777359 104.65465668 33.69492889 103.6015625 33.70230103 C101.90519653 33.70633438 101.90519653 33.70633438 100.17456055 33.71044922 C98.99090408 33.71702042 97.80724762 33.72359161 96.58772278 33.73036194 C93.3314176 33.74673388 90.07514611 33.7583303 86.81881118 33.76656747 C84.78537155 33.77171314 82.75193652 33.7777891 80.71850014 33.7840786 C74.35932165 33.80313814 68.00015482 33.81736705 61.64095324 33.82569057 C54.29493152 33.83546375 46.94921106 33.86178175 39.60329551 33.90219146 C33.9293718 33.93233459 28.25553453 33.94715775 22.5815323 33.95047158 C19.19091433 33.9528244 15.80061791 33.96181376 12.41008568 33.98693275 C8.62690354 34.0111643 4.84451454 34.01038803 1.0612793 34.00341797 C-0.62597763 34.02263306 -0.62597763 34.02263306 -2.34732056 34.04223633 C-3.37790085 34.03529251 -4.40848114 34.02834869 -5.47029114 34.02119446 C-6.3649751 34.02358281 -7.25965906 34.02597116 -8.18145466 34.02843189 C-11.36609177 33.37017195 -12.56808127 32.03721588 -14.57617188 29.53344727 C-15.39606801 25.40582369 -15.1790108 21.23344139 -15.13867188 17.03344727 C-15.16251953 15.89262695 -15.18636719 14.75180664 -15.2109375 13.57641602 C-15.20900391 12.47942383 -15.20707031 11.38243164 -15.20507812 10.25219727 C-15.20616577 8.75076172 -15.20616577 8.75076172 -15.20727539 7.21899414 C-14.57617188 4.53344727 -14.57617188 4.53344727 -12.63523865 2.39894104 C-8.37322434 -0.20013958 -4.90311938 -0.03555669 0 0 Z " fill="#000002" transform="translate(34.576171875,240.466552734375)"/>
<path d="M0 0 C2.75569447 2.18159145 4.43588747 3.87177494 6 7 C6.41204834 11.63554388 5.87454146 14.30416098 3 18 C-0.42919572 20.57189679 -3.83939486 20.502142 -8 20 C-12.00535091 17.55228556 -13.66804391 16.07397557 -15.0625 11.5625 C-14.99118687 7.49765169 -14.20649268 5.38854234 -12 2 C-7.99745384 -0.66836411 -4.70686701 -0.8340238 0 0 Z M-6 7 C-6.33 8.32 -6.66 9.64 -7 11 C-5.515 11.99 -5.515 11.99 -4 13 C-3.34 12.67 -2.68 12.34 -2 12 C-2.33 10.35 -2.66 8.7 -3 7 C-3.99 7 -4.98 7 -6 7 Z " fill="#000002" transform="translate(193,65)"/>
<path d="M0 0 C2.87029869 1.79393668 4.49131638 2.98263276 6 6 C6.70153846 13.13230769 6.70153846 13.13230769 3.625 16.9375 C-0.45267175 20.14138495 -2.78779014 20.4417127 -8 20 C-10.75329021 18.20437595 -12.52627461 16.94745078 -14 14 C-14.6469176 9.2959849 -14.63833677 6.00898393 -12.0625 1.9375 C-7.95859581 -0.65884755 -4.73725096 -0.95259938 0 0 Z M-5 7 C-5.66 8.32 -6.32 9.64 -7 11 C-4.525 11.495 -4.525 11.495 -2 12 C-1.67 11.01 -1.34 10.02 -1 9 C-2.32 8.34 -3.64 7.68 -5 7 Z " fill="#000002" transform="translate(129,101)"/>
<path d="M0 0 C3.70219508 2.54525912 4.7681855 4.18864925 6 8.5 C6 13.32773113 4.52272814 15.42288871 1.25 18.8125 C-2.08187066 20.57098729 -4.28346973 20.51262487 -8 20 C-12.00535091 17.55228556 -13.66804391 16.07397557 -15.0625 11.5625 C-14.99118687 7.49765169 -14.20649268 5.38854234 -12 2 C-7.97500157 -0.68333228 -4.72857864 -0.79639219 0 0 Z M-6 7 C-6.33 8.32 -6.66 9.64 -7 11 C-5.515 11.99 -5.515 11.99 -4 13 C-3.34 12.34 -2.68 11.68 -2 11 C-2.3185177 8.89179203 -2.3185177 8.89179203 -3 7 C-3.99 7 -4.98 7 -6 7 Z " fill="#000002" transform="translate(193,101)"/>
<path d="M0 0 C2.8100346 1.79363911 4.50940468 3.01880935 6 6 C6.5811138 13.08958838 6.5811138 13.08958838 4.125 16.9375 C0.8698054 20.09695358 -1.42413238 20.33421243 -5.9609375 20.29296875 C-9.13134567 19.83745033 -10.8192402 18.24684343 -13 16 C-14.60086627 12.79826746 -14.49917089 9.47422941 -14 6 C-10.32759145 0.24655994 -6.71744997 -0.96515086 0 0 Z M-5 7 C-5.66 8.32 -6.32 9.64 -7 11 C-5.515 11.99 -5.515 11.99 -4 13 C-3.01 12.01 -2.02 11.02 -1 10 C-1.66 9.01 -2.32 8.02 -3 7 C-3.66 7 -4.32 7 -5 7 Z " fill="#000002" transform="translate(129,65)"/>
<path d="M0 0 C4.55555556 0.55555556 4.55555556 0.55555556 6 2 C6.25208722 5.80588144 6.18522344 9.62425456 6.1875 13.4375 C6.19974609 14.51322266 6.21199219 15.58894531 6.22460938 16.69726562 C6.22750977 18.23737305 6.22750977 18.23737305 6.23046875 19.80859375 C6.23457764 20.75532959 6.23868652 21.70206543 6.24291992 22.67749023 C6 25 6 25 4 27 C-0.55555556 26.44444444 -0.55555556 26.44444444 -2 25 C-2.25208722 21.19411856 -2.18522344 17.37574544 -2.1875 13.5625 C-2.19974609 12.48677734 -2.21199219 11.41105469 -2.22460938 10.30273438 C-2.22654297 9.27599609 -2.22847656 8.24925781 -2.23046875 7.19140625 C-2.23457764 6.24467041 -2.23868652 5.29793457 -2.24291992 4.32250977 C-2 2 -2 2 0 0 Z " fill="#000002" transform="translate(119,193)"/>
<path d="M0 0 C3.07079328 -0.50549982 5.18131535 -0.55795283 7.80761719 1.23193359 C9.75107179 2.97898072 11.56821027 4.79961219 13.375 6.6875 C14.01566406 7.31333984 14.65632813 7.93917969 15.31640625 8.58398438 C19.87191788 13.22205858 19.87191788 13.22205858 20.4765625 16.89453125 C20 19 20 19 19 20 C16.07928875 20.32237634 14.52185215 20.34541023 12.03955078 18.70239258 C10.0516131 16.75366627 8.07210801 14.80217787 6.125 12.8125 C5.42375 12.13896484 4.7225 11.46542969 4 10.77148438 C3.34257813 10.11083984 2.68515625 9.45019531 2.0078125 8.76953125 C1.40598145 8.16729736 0.80415039 7.56506348 0.18408203 6.94458008 C-1 5 -1 5 -0.68798828 2.2644043 C-0.46095215 1.51715088 -0.23391602 0.76989746 0 0 Z " fill="#000002" transform="translate(98,206)"/>
<path d="M0 0 C1 1 1 1 1.4765625 3.10546875 C0.71665419 7.72097743 -2.36444081 10.12738634 -5.625 13.3125 C-6.24246094 13.95767578 -6.85992187 14.60285156 -7.49609375 15.26757812 C-12.15040905 19.89739703 -12.15040905 19.89739703 -16.4609375 20.41796875 C-17.29882812 20.28003906 -18.13671875 20.14210937 -19 20 C-19.68798828 17.7355957 -19.68798828 17.7355957 -20 15 C-18.81591797 13.05541992 -18.81591797 13.05541992 -16.9921875 11.23046875 C-16.33476562 10.56982422 -15.67734375 9.90917969 -15 9.22851562 C-14.29875 8.55498047 -13.5975 7.88144531 -12.875 7.1875 C-12.19695312 6.49462891 -11.51890625 5.80175781 -10.8203125 5.08789062 C-5.07739696 -0.56042262 -5.07739696 -0.56042262 0 0 Z " fill="#000002" transform="translate(215,206)"/>
<path d="M0 0 C1.5631897 0.00785522 1.5631897 0.00785522 3.15795898 0.01586914 C4.28266602 0.0190918 5.40737305 0.02231445 6.56616211 0.02563477 C7.75016602 0.03401367 8.93416992 0.04239258 10.15405273 0.05102539 C11.34192383 0.05553711 12.52979492 0.06004883 13.75366211 0.06469727 C16.69967499 0.07652864 19.64558954 0.09301252 22.59155273 0.11352539 C23.21655273 1.92602539 23.21655273 1.92602539 23.59155273 4.11352539 C22.60155273 5.59852539 22.60155273 5.59852539 21.59155273 7.11352539 C19.17724609 7.4699707 19.17724609 7.4699707 16.18139648 7.44165039 C15.10954102 7.43649414 14.03768555 7.43133789 12.93334961 7.42602539 C11.80993164 7.40540039 10.68651367 7.38477539 9.52905273 7.36352539 C7.838125 7.35579102 7.838125 7.35579102 6.11303711 7.34790039 C-2.25467637 7.26729629 -2.25467637 7.26729629 -3.40844727 6.11352539 C-3.53344727 3.61352539 -3.53344727 3.61352539 -3.40844727 1.11352539 C-2.40844727 0.11352539 -2.40844727 0.11352539 0 0 Z " fill="#000002" transform="translate(88.408447265625,225.886474609375)"/>
<path d="M0 0 C1 1 1 1 1.11352539 3.31665039 C1.10828857 4.31688232 1.10305176 5.31711426 1.09765625 6.34765625 C1.09282227 7.96704102 1.09282227 7.96704102 1.08789062 9.61914062 C1.07951172 10.75544922 1.07113281 11.89175781 1.0625 13.0625 C1.05798828 14.20267578 1.05347656 15.34285156 1.04882812 16.51757812 C1.03699747 19.34510351 1.0205141 22.1725264 1 25 C-3.75 26.125 -3.75 26.125 -6 25 C-6 16.75 -6 8.5 -6 0 C-3.49749232 -1.25125384 -2.59701335 -0.83774624 0 0 Z " fill="#000002" transform="translate(195,194)"/>
<path d="M0 0 C1.07507813 -0.00128906 2.15015625 -0.00257813 3.2578125 -0.00390625 C4.38960937 -0.00003906 5.52140625 0.00382813 6.6875 0.0078125 C7.81929687 0.00394531 8.95109375 0.00007812 10.1171875 -0.00390625 C11.19226563 -0.00261719 12.26734375 -0.00132812 13.375 0 C14.86580078 0.00169189 14.86580078 0.00169189 16.38671875 0.00341797 C18.6875 0.1328125 18.6875 0.1328125 19.6875 1.1328125 C19.8125 3.6328125 19.8125 3.6328125 19.6875 6.1328125 C17.97182208 7.84849042 15.71377265 7.26297075 13.375 7.265625 C12.29992187 7.26691406 11.22484375 7.26820313 10.1171875 7.26953125 C8.98539063 7.26566406 7.85359375 7.26179687 6.6875 7.2578125 C5.55570313 7.26167969 4.42390625 7.26554688 3.2578125 7.26953125 C2.18273437 7.26824219 1.10765625 7.26695312 0 7.265625 C-0.99386719 7.26449707 -1.98773438 7.26336914 -3.01171875 7.26220703 C-5.3125 7.1328125 -5.3125 7.1328125 -6.3125 6.1328125 C-6.4375 3.6328125 -6.4375 3.6328125 -6.3125 1.1328125 C-4.59682208 -0.58286542 -2.33877265 0.00265425 0 0 Z " fill="#000002" transform="translate(208.3125,225.8671875)"/>
</svg>
