<?xml version="1.0" encoding="UTF-8"?>
<svg version="1.1" xmlns="http://www.w3.org/2000/svg" width="313" height="313">
<path d="M0 0 C1.37455518 0.23181982 2.74959808 0.46075802 4.125 0.6875 C7.62949254 1.55034854 7.90472282 1.86268877 10.125 5.0625 C11.5706606 9.79728104 10.99965533 13.51410654 9 18 C6.35650153 22.20982335 3.44343427 26.16251454 0.43066406 30.11328125 C-1.47347349 32.62440326 -3.32421756 35.17269407 -5.17651367 37.72216797 C-6.55563744 39.61557834 -7.94631572 41.49998597 -9.33984375 43.3828125 C-11.04720774 45.69252221 -12.72584284 48.01835297 -14.37890625 50.3671875 C-15.12011719 51.40101563 -15.86132812 52.43484375 -16.625 53.5 C-17.25664062 54.3971875 -17.88828125 55.294375 -18.5390625 56.21875 C-25.15671198 63.69774433 -33.63466952 68.27462214 -42.375 72.875 C-43.5189624 73.48504883 -44.6629248 74.09509766 -45.84155273 74.72363281 C-53.24824051 78.64223016 -60.73455785 82.31691398 -68.35546875 85.79711914 C-73.75889534 88.3012462 -78.80195477 91.19965029 -83.875 94.3125 C-100.66348535 104.4897956 -115.28221018 104.15646206 -133.83691406 99.80126953 C-141.53705611 97.85067782 -149.14241871 95.54836863 -156.75878906 93.29711914 C-179.43609847 86.59485045 -197.67487488 81.65106906 -219.68945312 92.34179688 C-220.44806641 92.69693359 -221.20667969 93.05207031 -221.98828125 93.41796875 C-223.00208862 93.90946411 -223.00208862 93.90946411 -224.03637695 94.41088867 C-226.50089641 95.15027515 -227.61331162 94.93723927 -230 94 C-231.16868591 92.2588501 -231.16868591 92.2588501 -232.11889648 89.96191406 C-232.48285019 89.10301575 -232.84680389 88.24411743 -233.2217865 87.35919189 C-233.60105789 86.42081482 -233.98032928 85.48243774 -234.37109375 84.515625 C-234.77530045 83.54904968 -235.17950714 82.58247437 -235.59596252 81.58660889 C-236.89077831 78.48012523 -238.16410209 75.36531569 -239.4375 72.25 C-240.2909648 70.1960519 -241.14576768 68.14265925 -242.00195312 66.08984375 C-246.14839662 56.11618619 -250.21728369 46.11812613 -254 36 C-252.76636719 35.07380859 -252.76636719 35.07380859 -251.5078125 34.12890625 C-250.3794532 33.27443377 -249.25191003 32.41888293 -248.125 31.5625 C-247.23035034 30.88405029 -247.23035034 30.88405029 -246.31762695 30.19189453 C-242.72485671 27.4326701 -239.42816568 24.54919048 -236.1875 21.375 C-232.15002631 17.67234121 -227.97596853 15.09151635 -223.125 12.625 C-222.50133545 12.30321777 -221.8776709 11.98143555 -221.23510742 11.64990234 C-211.3028209 6.86042031 -201.17671089 5.48991919 -190.25 5.5625 C-189.198125 5.54251953 -188.14625 5.52253906 -187.0625 5.50195312 C-170.76123451 5.51179688 -156.01729193 11.61867484 -141.0625 17.4375 C-122.57453325 24.6074508 -105.05798577 30.22336259 -85.35742188 33.02734375 C-78.06293407 34.16404524 -71.05719243 35.52073165 -65 40 C-62.78560287 43.34949394 -62.76018645 45.99081323 -63.3984375 49.96875 C-64.47932794 53.61850993 -66.20666702 55.39288922 -69 58 C-80.98510872 62.98652838 -95.09514973 59.44444932 -107.375 57.0625 C-110.31936893 56.50662621 -113.26498519 55.95757063 -116.2109375 55.41015625 C-116.9056868 55.28035873 -117.6004361 55.15056122 -118.3162384 55.01683044 C-138.20896039 51.28521603 -138.20896039 51.28521603 -157 57 C-157.33 57.99 -157.66 58.98 -158 60 C-157.12859375 59.7834375 -156.2571875 59.566875 -155.359375 59.34375 C-137.641624 55.20193808 -120.89353919 57.78476043 -103.30761719 61.64379883 C-85.42141496 65.77728164 -85.42141496 65.77728164 -68.125 61.875 C-63.77416607 58.33685032 -61.42927646 54.71710586 -60.0625 49.25 C-59.61300832 44.20787591 -61.30040339 39.68589349 -63 35 C-62.33355469 34.59910156 -61.66710937 34.19820312 -60.98046875 33.78515625 C-52.20620277 28.37333625 -44.29164625 22.42977876 -37.1015625 15.04296875 C-36.06938599 13.98420532 -36.06938599 13.98420532 -35.01635742 12.90405273 C-33.66725386 11.50615012 -32.33060229 10.09608097 -31.0090332 8.67211914 C-22.54987505 -0.14430151 -11.85764198 -5.61677778 0 0 Z " fill="#000000" transform="translate(292,173)"/>
<path d="M0 0 C14.72719728 12.61134106 21.74156887 28.55392136 23.58984375 47.609375 C24.28055727 66.28626854 17.03893457 82.83854097 4.84375 96.51953125 C-2.35465621 103.5770048 -10.49569762 107.87521818 -19.6875 111.75 C-20.57695312 112.13285156 -21.46640625 112.51570313 -22.3828125 112.91015625 C-37.54518934 118.15117075 -56.68596808 115.64167452 -70.875 109 C-76.31289867 106.12487081 -81.06601039 102.79939031 -85.6875 98.75 C-86.60982422 97.95142578 -86.60982422 97.95142578 -87.55078125 97.13671875 C-99.50401408 86.03160887 -105.76631701 70.30643282 -106.94140625 54.2890625 C-107.59680252 34.11977071 -100.31755005 17.38223873 -86.73828125 2.6328125 C-63.09935822 -20.51081881 -25.16916928 -19.57602055 0 0 Z M-80.46875 13.30078125 C-91.85759035 25.87261735 -95.58002256 40.04542027 -94.86230469 56.59912109 C-93.84895922 69.0677993 -87.00865631 81.52168041 -77.90625 89.94140625 C-66.45944094 99.27216786 -52.6780922 105.03560095 -37.6875 103.75 C-23.14231033 101.79268435 -10.50432054 95.83999181 -0.6875 84.75 C9.09902657 71.28935082 13.43130267 57.24693986 10.81640625 40.58984375 C7.46049761 25.89589349 -0.25594851 14.01139299 -12.78515625 5.50390625 C-35.42149263 -8.1753872 -61.3312567 -4.99789335 -80.46875 13.30078125 Z " fill="#000000" transform="translate(237.6875,59.25)"/>
<path d="M0 0 C4.42896552 1.77158621 7.10331603 3.3915463 10.8125 6.25 C11.85535156 7.04792969 12.89820313 7.84585937 13.97265625 8.66796875 C14.97167969 9.43753906 15.97070312 10.20710938 17 11 C18.58130309 12.19020218 20.16429551 13.37816813 21.75 14.5625 C22.83333333 15.375 23.91666667 16.1875 25 17 C24.91015625 18.6953125 24.91015625 18.6953125 24 21 C21.84133416 22.77496811 19.74958805 24.32945167 17.4375 25.875 C16.15956599 26.75435114 14.88221919 27.63455629 13.60546875 28.515625 C12.98591309 28.93908203 12.36635742 29.36253906 11.72802734 29.79882812 C8.88801948 31.77295057 6.17032504 33.90074421 3.453125 36.0390625 C2 37 2 37 0 37 C-0.33 33.04 -0.66 29.08 -1 25 C-8.95512544 24.93170213 -16.91001559 24.87688728 -24.8653574 24.84456348 C-28.56098554 24.82903474 -32.25639942 24.80803684 -35.9519043 24.77368164 C-39.53108198 24.74062342 -43.11005612 24.7230514 -46.68937492 24.71536827 C-48.69138692 24.70728372 -50.69331922 24.68394273 -52.69520569 24.66011047 C-75.20723728 24.65606257 -93.89896016 31.83264531 -110.30078125 47.1484375 C-125.13998072 62.6503585 -129.46372684 81.56500508 -129.203125 102.3203125 C-128.73262969 119.97536203 -119.90537001 136.01317135 -107.625 148.39453125 C-92.96892822 162.20329888 -76.41360632 166.45429256 -57 169 C-57 172.63 -57 176.26 -57 180 C-72.77660127 183.15532025 -91.86853782 175.33908402 -105 167 C-124.75334009 153.00688 -136.66758373 133.82448088 -141.5859375 110.18359375 C-144.63035804 86.7760207 -139.4148928 63.81355494 -125 45 C-111.23599503 27.84559675 -92.79352836 16.6500441 -71 13 C-68.6395317 12.91389682 -66.27682937 12.88227917 -63.91479492 12.88647461 C-62.87494446 12.88625557 -62.87494446 12.88625557 -61.81408691 12.8860321 C-59.53618171 12.88672549 -57.25835957 12.89449085 -54.98046875 12.90234375 C-53.39577784 12.90420997 -51.81108635 12.90563291 -50.22639465 12.90663147 C-46.0655049 12.91044057 -41.90465032 12.92025708 -37.74377441 12.93133545 C-33.49390132 12.94158418 -29.24402252 12.9461365 -24.99414062 12.95117188 C-16.66274251 12.96188084 -8.33137969 12.97946458 0 13 C0 8.71 0 4.42 0 0 Z " fill="#000000" transform="translate(254,13)"/>
<path d="M0 0 C3.0826628 1.72088257 3.8659447 4.78382414 5.09057617 7.92993164 C5.52926781 9.00156555 5.52926781 9.00156555 5.9768219 10.09484863 C6.93668846 12.44838205 7.87496577 14.80990114 8.81323242 17.17211914 C9.47056128 18.79692325 10.12943003 20.42110519 10.78979492 22.04467773 C11.80545805 24.54292984 12.81972782 27.04166996 13.82809448 29.5428772 C16.08770459 35.14352137 18.41055826 40.71338079 20.78588867 46.26586914 C21.09203598 46.98370575 21.39818329 47.70154236 21.71360779 48.44113159 C22.88875116 51.19589126 24.06410712 53.95047768 25.25143433 56.70001221 C26.06027769 58.57573486 26.85891275 60.45584979 27.65698242 62.33618164 C28.11137695 63.39530762 28.56577148 64.45443359 29.03393555 65.5456543 C29.450625 66.78387939 29.450625 66.78387939 29.87573242 68.04711914 C27.87783255 72.04291889 21.97340374 73.12212332 18.00073242 74.73461914 C16.98108398 75.16323242 15.96143555 75.5918457 14.91088867 76.03344727 C13.93249023 76.43370117 12.9540918 76.83395508 11.94604492 77.24633789 C11.04644043 77.615896 10.14683594 77.9854541 9.2199707 78.36621094 C6.87573242 79.04711914 6.87573242 79.04711914 3.87573242 78.04711914 C2.69353649 75.82978557 1.70791163 73.69911192 0.75854492 71.38305664 C0.4647142 70.69092072 0.17088348 69.99878479 -0.1318512 69.28567505 C-1.09822502 67.00211732 -2.04889569 64.71237757 -2.99926758 62.42211914 C-3.66251813 60.84426937 -4.32667089 59.26679857 -4.99169922 57.68969727 C-6.3618086 54.43589637 -7.72550545 51.17951021 -9.0847168 47.92114258 C-11.03613331 43.24820008 -13.01689043 38.58813508 -15.00317383 33.92993164 C-15.9026948 31.81319226 -16.80130336 29.69606937 -17.69927979 27.57867432 C-18.27292536 26.22747533 -18.84791146 24.87684466 -19.42425537 23.52679443 C-20.22405363 21.65038723 -21.01615421 19.77070453 -21.80786133 17.89086914 C-22.4815979 16.30048828 -22.4815979 16.30048828 -23.16894531 14.67797852 C-24.12426758 12.04711914 -24.12426758 12.04711914 -24.12426758 9.04711914 C-20.54857382 7.50785706 -16.9626695 5.9939907 -13.37426758 4.48461914 C-12.35848633 4.04698242 -11.34270508 3.6093457 -10.29614258 3.15844727 C-9.31645508 2.74916992 -8.33676758 2.33989258 -7.32739258 1.91821289 C-6.42666016 1.53592529 -5.52592773 1.1536377 -4.59790039 0.75976562 C-2.12426758 0.04711914 -2.12426758 0.04711914 0 0 Z M9.87573242 58.04711914 C9.21573242 58.70711914 8.55573242 59.36711914 7.87573242 60.04711914 C8.19614639 62.64992482 8.19614639 62.64992482 8.87573242 65.04711914 C10.54185147 65.08984014 12.20956127 65.08775746 13.87573242 65.04711914 C15.17206863 63.98066799 15.17206863 63.98066799 14.93823242 61.48461914 C14.91760742 60.68024414 14.89698242 59.87586914 14.87573242 59.04711914 C12.4785381 58.36753311 12.4785381 58.36753311 9.87573242 58.04711914 Z " fill="#000000" transform="translate(34.124267578125,205.952880859375)"/>
<path d="M0 0 C1.98 0 3.96 0 6 0 C7.98 3.63 9.96 7.26 12 11 C13.97204625 8.370605 15.61539808 6.06894138 17.1875 3.25 C17.785625 2.1775 18.38375 1.105 19 0 C20.98 0 22.96 0 25 0 C25 7.26 25 14.52 25 22 C23.35 22 21.7 22 20 22 C19.505 17.05 19.505 17.05 19 12 C17.68 14.64 16.36 17.28 15 20 C13.35 20 11.7 20 10 20 C8.68 17.36 7.36 14.72 6 12 C5.67 15.3 5.34 18.6 5 22 C3.35 22 1.7 22 0 22 C0 14.74 0 7.48 0 0 Z " fill="#000000" transform="translate(192,89)"/>
<path d="M0 0 C12.05357143 -0.53571429 12.05357143 -0.53571429 15.625 1.75 C19.08504177 5.02793431 19.84794585 6.63151262 20.375 11.375 C19.92573223 15.7179218 18.8337428 17.70673134 16 21 C11 23 11 23 0 23 C0 15.41 0 7.82 0 0 Z M5 5 C5 9.29 5 13.58 5 18 C8.43230448 17.73606499 8.43230448 17.73606499 12 17 C14.36139302 14.10538099 14.36139302 14.10538099 13.8125 10.4375 C13.35160238 6.74174248 13.35160238 6.74174248 10 5 C8.35 5 6.7 5 5 5 Z " fill="#000000" transform="translate(166,113)"/>
<path d="M0 0 C3.22892755 1.47608117 5.53271972 3.64689929 8.1875 6 C5.09840091 12.86799701 -2.1278048 19.58184658 -8.8125 23 C-10.90625 22.83203125 -10.90625 22.83203125 -12.8125 22 C-16.84600173 17.09438979 -16.84600173 17.09438979 -16.75390625 14.0859375 C-15.35051234 10.9763427 -13.11301396 9.51260335 -10.4375 7.4375 C-6.61264235 4.49077757 -6.61264235 4.49077757 -3.07421875 1.22265625 C-1.8125 0 -1.8125 0 0 0 Z " fill="#000000" transform="translate(251.8125,157)"/>
<path d="M0 0 C3.31005437 1.71231659 4.28762553 4.90820293 5.71875 8.17578125 C6.17991211 9.15417969 6.17991211 9.15417969 6.65039062 10.15234375 C8.6104311 14.47558401 9.57119968 18.32759799 10.03125 23.05078125 C4.58625 24.53578125 4.58625 24.53578125 -0.96875 26.05078125 C-1.29488281 25.25414063 -1.62101562 24.4575 -1.95703125 23.63671875 C-4.68053073 16.99183107 -4.68053073 16.99183107 -7.84375 10.55078125 C-8.96875 8.05078125 -8.96875 8.05078125 -9.03125 5.92578125 C-7.13804283 2.58482743 -3.91886344 0.10108179 0 0 Z " fill="#000000" transform="translate(265.96875,63.94921875)"/>
<path d="M0 0 C1.4540625 0.0309375 1.4540625 0.0309375 2.9375 0.0625 C3.26363281 0.84753906 3.58976563 1.63257812 3.92578125 2.44140625 C4.58126953 4.01728516 4.58126953 4.01728516 5.25 5.625 C5.930625 7.26662109 5.930625 7.26662109 6.625 8.94140625 C7.6315729 11.33501264 8.67464717 13.69982576 9.75 16.0625 C10.9375 19.0625 10.9375 19.0625 10.9375 23.0625 C8.5625 23.1875 8.5625 23.1875 5.9375 23.0625 C5.2775 22.4025 4.6175 21.7425 3.9375 21.0625 C3.9375 20.0725 3.9375 19.0825 3.9375 18.0625 C1.2975 18.0625 -1.3425 18.0625 -4.0625 18.0625 C-4.206875 18.701875 -4.35125 19.34125 -4.5 20 C-5.0625 22.0625 -5.0625 22.0625 -6.0625 23.0625 C-7.72867115 23.10313832 -9.39638095 23.105221 -11.0625 23.0625 C-6.78854167 0.13854167 -6.78854167 0.13854167 0 0 Z M-1.0625 9.0625 C-1.3925 10.3825 -1.7225 11.7025 -2.0625 13.0625 C-0.7425 12.7325 0.5775 12.4025 1.9375 12.0625 C1.6075 11.0725 1.2775 10.0825 0.9375 9.0625 C0.2775 9.0625 -0.3825 9.0625 -1.0625 9.0625 Z " fill="#000000" transform="translate(196.0625,112.9375)"/>
<path d="M0 0 C1.4540625 0.0309375 1.4540625 0.0309375 2.9375 0.0625 C3.26363281 0.84753906 3.58976563 1.63257812 3.92578125 2.44140625 C4.58126953 4.01728516 4.58126953 4.01728516 5.25 5.625 C5.930625 7.2646875 5.930625 7.2646875 6.625 8.9375 C7.63774341 11.34879383 8.68037012 13.73890257 9.75 16.125 C10.9375 19.0625 10.9375 19.0625 10.9375 22.0625 C8.9575 22.0625 6.9775 22.0625 4.9375 22.0625 C4.6075 20.4125 4.2775 18.7625 3.9375 17.0625 C1.2975 17.0625 -1.3425 17.0625 -4.0625 17.0625 C-4.3925 18.7125 -4.7225 20.3625 -5.0625 22.0625 C-7.0425 22.0625 -9.0225 22.0625 -11.0625 22.0625 C-10.44160554 17.07206079 -8.96748961 12.85522252 -7.0625 8.25 C-6.78921875 7.57001953 -6.5159375 6.89003906 -6.234375 6.18945312 C-3.74774372 0.07648457 -3.74774372 0.07648457 0 0 Z M-1.0625 8.0625 C-1.3925 9.7125 -1.7225 11.3625 -2.0625 13.0625 C-0.7425 12.7325 0.5775 12.4025 1.9375 12.0625 C1.2775 10.7425 0.6175 9.4225 -0.0625 8.0625 C-0.3925 8.0625 -0.7225 8.0625 -1.0625 8.0625 Z " fill="#000000" transform="translate(180.0625,88.9375)"/>
<path d="M0 0 C0.7734375 -0.00773437 1.546875 -0.01546875 2.34375 -0.0234375 C4.95159728 0.45844732 5.83871866 1.36229376 7.5 3.375 C6.51 4.86 6.51 4.86 5.5 6.375 C3.19 6.045 0.88 5.715 -1.5 5.375 C-0.00011061 8.37477878 2.55159126 8.93088143 5.5 10.375 C6.16 11.035 6.82 11.695 7.5 12.375 C7.16698859 18.48020915 7.16698859 18.48020915 5.23046875 21.078125 C3.01996784 22.73475322 1.7380042 22.74682342 -1 22.6875 C-1.7734375 22.68363281 -2.546875 22.67976563 -3.34375 22.67578125 C-5.5 22.375 -5.5 22.375 -8.5 20.375 C-8.17 19.055 -7.84 17.735 -7.5 16.375 C-4.53 16.705 -1.56 17.035 1.5 17.375 C-1.13073728 14.74426272 -3.33014862 13.21017712 -6.5 11.375 C-7.5 10.375 -7.5 10.375 -7.75 7 C-7.5 3.375 -7.5 3.375 -6.265625 1.671875 C-4.03947923 0.03674138 -2.74135228 -0.02741352 0 0 Z " fill="#000000" transform="translate(161.5,88.625)"/>
<path d="M0 0 C4.62 0 9.24 0 14 0 C14 1.65 14 3.3 14 5 C11.36 5 8.72 5 6 5 C6 6.32 6 7.64 6 9 C7.98 9 9.96 9 12 9 C12 10.32 12 11.64 12 13 C10.02 13 8.04 13 6 13 C6 14.32 6 15.64 6 17 C8.64 17 11.28 17 14 17 C14 18.65 14 20.3 14 22 C9.38 22 4.76 22 0 22 C0 14.74 0 7.48 0 0 Z " fill="#000000" transform="translate(220,89)"/>
<path d="M0 0 C3 6.5 3 6.5 3 11 C-3.4150557 13.87940913 -8.97047248 15.5464821 -16 16 C-16.66 12.37 -17.32 8.74 -18 5 C-15.75267898 4.15875684 -13.50261215 3.32685168 -11.25 2.5 C-10.61578125 2.26152344 -9.9815625 2.02304688 -9.328125 1.77734375 C-5.96713393 0.55198242 -3.63128413 0 0 0 Z " fill="#000000" transform="translate(229,175)"/>
<path d="M0 0 C0.88277755 4.51815281 1.10589503 8.77512694 1.0625 13.375 C1.05347656 14.62023437 1.04445313 15.86546875 1.03515625 17.1484375 C1.02355469 18.08945313 1.01195312 19.03046875 1 20 C-0.43739513 20.02712066 -1.87493863 20.04645067 -3.3125 20.0625 C-4.51326172 20.07990234 -4.51326172 20.07990234 -5.73828125 20.09765625 C-8 20 -8 20 -11 19 C-11.33 13.39 -11.66 7.78 -12 2 C-4.125 -0.25 -4.125 -0.25 0 0 Z " fill="#000000" transform="translate(279,96)"/>
<path d="M0 0 C2.75 -0.375 2.75 -0.375 6 0 C10 4.84210526 10 4.84210526 10 8 C10.66 8 11.32 8 12 8 C12.309375 6.865625 12.61875 5.73125 12.9375 4.5625 C14 1 14 1 15 0 C17.33297433 -0.04092937 19.66705225 -0.04241723 22 0 C21.02325896 1.98036486 20.04354018 3.95926133 19.0625 5.9375 C18.24458984 7.59072266 18.24458984 7.59072266 17.41015625 9.27734375 C16 12 16 12 15 13 C14.76712992 14.68183948 14.58735834 16.3712416 14.4375 18.0625 C14.35371094 18.98160156 14.26992187 19.90070313 14.18359375 20.84765625 C14.12300781 21.55792969 14.06242188 22.26820313 14 23 C12.02 23 10.04 23 8 23 C7.979375 21.7625 7.95875 20.525 7.9375 19.25 C7.35156028 13.49131118 4.54881418 9.31332295 1.49609375 4.50390625 C0 2 0 2 0 0 Z " fill="#000000" transform="translate(203,113)"/>
<path d="M0 0 C3.9492568 0.55105909 7.34920174 1.38935371 11 3 C10.49202991 7.3177458 9.80317221 11.03302114 8 15 C3.87248551 14.39301257 0.6678852 12.96189209 -3 11 C-2.44894091 7.0507432 -1.61064629 3.65079826 0 0 Z " fill="#000000" transform="translate(263,134)"/>
</svg>
